<?xml version="1.0" encoding="UTF-8"?>
<svg xmlns="http://www.w3.org/2000/svg" version="1.1" viewBox="0 0 24 24">
  <defs>
    <style>
      .cls-1 {
        fill: #616164;
      }
    </style>
  </defs>
  <!-- Generator: Adobe Illustrator 28.7.1, SVG Export Plug-In . SVG Version: 1.2.0 Build 142)  -->
  <g>
    <g id="Layer_1">
      <path class="cls-1" d="M8,5.8c-.4,0-.8-.3-.8-.8v-3c0-.4.3-.8.8-.8s.8.3.8.8v3c0,.4-.3.8-.8.8Z"/>
      <path class="cls-1" d="M16,5.8c-.4,0-.8-.3-.8-.8v-3c0-.4.3-.8.8-.8s.8.3.8.8v3c0,.4-.3.8-.8.8Z"/>
      <path class="cls-1" d="M20.5,9.8H3.5c-.4,0-.8-.3-.8-.8s.3-.8.8-.8h17c.4,0,.8.3.8.8s-.3.8-.8.8Z"/>
      <path class="cls-1" d="M16,22.8h-8c-3.7,0-5.8-2.1-5.8-5.8v-8.5c0-3.7,2.1-5.8,5.8-5.8h8c3.7,0,5.8,2.1,5.8,5.8v8.5c0,3.7-2.1,5.8-5.8,5.8ZM8,4.2c-2.9,0-4.2,1.4-4.2,4.2v8.5c0,2.9,1.4,4.2,4.2,4.2h8c2.9,0,4.2-1.4,4.2-4.2v-8.5c0-2.9-1.4-4.2-4.2-4.2h-8Z"/>
      <path class="cls-1" d="M12,14.7c-.6,0-1-.4-1-1s.4-1,1-1h0c.6,0,1,.4,1,1s-.4,1-1,1Z"/>
      <path class="cls-1" d="M8.3,14.7c-.6,0-1-.4-1-1s.4-1,1-1h0c.6,0,1,.4,1,1s-.4,1-1,1Z"/>
      <path class="cls-1" d="M8.3,17.7c-.6,0-1-.4-1-1s.4-1,1-1h0c.6,0,1,.4,1,1s-.4,1-1,1Z"/>
    </g>
  </g>
</svg>